<?xml version="1.0" encoding="UTF-8" standalone="no"?>
<svg
   height="800px"
   width="800px"
   version="1.1"
   id="Layer_1"
   viewBox="0 0 512 512"
   xml:space="preserve"
   sodipodi:docname="io.github.saeugetier.photobooth.svg"
   inkscape:version="1.2.2 (b0a8486541, 2022-12-01)"
   xmlns:inkscape="http://www.inkscape.org/namespaces/inkscape"
   xmlns:sodipodi="http://sodipodi.sourceforge.net/DTD/sodipodi-0.dtd"
   xmlns="http://www.w3.org/2000/svg"
   xmlns:svg="http://www.w3.org/2000/svg"><defs
   id="defs37" /><sodipodi:namedview
   id="namedview35"
   pagecolor="#ffffff"
   bordercolor="#000000"
   borderopacity="0.25"
   inkscape:showpageshadow="2"
   inkscape:pageopacity="0.0"
   inkscape:pagecheckerboard="0"
   inkscape:deskcolor="#d1d1d1"
   showgrid="false"
   inkscape:zoom="0.98125"
   inkscape:cx="240.50955"
   inkscape:cy="400"
   inkscape:window-width="1854"
   inkscape:window-height="1011"
   inkscape:window-x="0"
   inkscape:window-y="0"
   inkscape:window-maximized="1"
   inkscape:current-layer="Layer_1" />
<path
   style="fill:#f2d546"
   d="m 65.428,33.804 h 31.15 c 9.219,0 16.692,7.473 16.692,16.692 V 72.273 H 48.737 V 50.496 c 0,-9.219 7.474,-16.692 16.691,-16.692 z"
   id="path2" />
<path
   style="fill:#d6ba30"
   d="m 65.428,33.804 h 7.794 V 72.273 H 48.737 V 50.496 c 0,-9.219 7.474,-16.692 16.691,-16.692 z"
   id="path4" />
<path
   style="fill:#008000"
   d="m 512,72.429 v 369.702 c 0,25.984 -21.06,47.031 -47.031,47.031 H 47.031 C 21.06,489.163 0,468.115 0,442.131 V 110.468 C 0,84.484 21.06,63.437 47.031,63.437 h 59.409 c 23.913,0 47.366,-6.586 67.781,-19.026 20.427,-12.428 43.881,-19.013 67.794,-19.013 H 464.968 C 490.94,25.398 512,46.457 512,72.429 Z"
   id="path6"
   sodipodi:nodetypes="ssscsssscsss" />
<path
   style="fill:#628062;fill-opacity:1"
   d="m 464.969,25.398 h -20.245 c 25.971,0 47.031,21.06 47.031,47.031 v 368.422 c 0,25.984 -21.06,47.031 -47.031,47.031 h 20.245 C 490.94,487.882 512,466.834 512,440.851 V 72.429 C 512,46.457 490.94,25.398 464.969,25.398 Z"
   id="path8"
   sodipodi:nodetypes="scsscssss" />
<path
   style="fill:#f2d546"
   d="m 512,328.82 v 113.311 c 0,25.984 -21.06,47.031 -47.031,47.031 H 47.031 C 21.06,489.163 0,468.115 0,442.131 V 328.82 Z"
   id="path10"
   sodipodi:nodetypes="csscscc" />
<circle
   style="fill:#d6ba30"
   cx="256.00601"
   cy="234.93002"
   r="133.231"
   id="circle12" />
<circle
   style="fill:#495e77"
   cx="256.00601"
   cy="234.93002"
   r="85.876999"
   id="circle14" />
<path
   style="fill:#62788e"
   d="m 256.001,149.048 c -7.181,0 -14.152,0.894 -20.819,2.555 37.368,9.307 65.06,43.076 65.06,83.324 0,40.248 -27.693,74.017 -65.06,83.324 6.668,1.661 13.637,2.555 20.819,2.555 47.43,0 85.879,-38.45 85.879,-85.879 0,-47.429 -38.449,-85.879 -85.879,-85.879 z"
   id="path16" />
<path
   style="fill:#f2d546"
   d="m 256.001,330.109 c -52.482,0 -95.182,-42.698 -95.182,-95.182 0,-52.484 42.698,-95.182 95.182,-95.182 52.484,0 95.182,42.698 95.182,95.182 -10e-4,52.485 -42.698,95.182 -95.182,95.182 z m 0,-171.758 c -42.224,0 -76.577,34.352 -76.577,76.577 0,42.224 34.352,76.577 76.577,76.577 42.225,0 76.577,-34.352 76.577,-76.577 -10e-4,-42.225 -34.353,-76.577 -76.577,-76.577 z"
   id="path18" />
<path
   style="fill:#88e2db"
   d="m 403.707,121.72 h 50.362 c 8.321,0 15.066,-6.745 15.066,-15.066 V 82.662 c 0,-8.321 -6.746,-15.066 -15.066,-15.066 h -50.362 c -8.321,0 -15.066,6.745 -15.066,15.066 v 23.992 c 10e-4,8.322 6.745,15.066 15.066,15.066 z"
   id="path20" />
<path
   style="fill:#b5f4ee"
   d="m 454.069,67.596 h -22.325 c 8.321,0 15.066,6.745 15.066,15.066 v 23.992 c 0,8.321 -6.745,15.066 -15.066,15.066 h 22.325 c 8.321,0 15.066,-6.746 15.066,-15.066 V 82.663 c 0,-8.322 -6.746,-15.067 -15.066,-15.067 z"
   id="path22" /><path
   style="fill:#333333"
   d="m 66.10715,455.98939 h 366.522 c 8.321,0 15.066,-6.745 15.066,-15.066 v -23.992 c 0,-8.321 -6.746,-15.066 -15.066,-15.066 h -366.522 c -8.321,0 -15.066,6.745 -15.066,15.066 v 23.992 c 10e-4,8.322 6.745,15.066 15.066,15.066 z"
   id="path20-3"
   sodipodi:nodetypes="ssssssscs" /><path
   style="fill:#4d4d4d"
   d="m 432.62915,401.86539 h -22.325 c 8.321,0 15.066,6.745 15.066,15.066 v 23.992 c 0,8.321 -6.745,15.066 -15.066,15.066 h 22.325 c 8.321,0 15.066,-6.746 15.066,-15.066 v -23.991 c 0,-8.322 -6.746,-15.067 -15.066,-15.067 z"
   id="path22-6" />
<g
   id="g28"
   transform="translate(0,-39.68)">
	<path
   style="fill:#f2d546"
   d="m 454.069,170.702 h -50.36 c -13.437,0 -24.368,-10.931 -24.368,-24.368 v -23.992 c 0,-13.436 10.931,-24.368 24.368,-24.368 h 50.36 c 13.437,0 24.368,10.931 24.368,24.368 v 23.993 c 0,13.437 -10.931,24.367 -24.368,24.367 z m -50.362,-54.123 c -3.179,0 -5.764,2.585 -5.764,5.764 v 23.993 c 0,3.179 2.586,5.764 5.764,5.764 h 50.36 c 3.179,0 5.764,-2.585 5.764,-5.764 v -23.993 c 0,-3.179 -2.586,-5.764 -5.764,-5.764 z"
   id="path24"
   sodipodi:nodetypes="ssssssssssssssssss" />
	<circle
   style="fill:#f2d546"
   cx="65.053001"
   cy="309.202"
   r="29.143999"
   id="circle26" />
</g>
<circle
   style="fill:#62788e"
   cx="223.511"
   cy="205.57304"
   r="19.068001"
   id="circle30" />
<path
   style="fill:#f9e178"
   d="m 512,328.82 v 113.311 c 0,25.984 -21.06,47.031 -47.031,47.031 h -20.241 c 25.971,0 47.031,-21.048 47.031,-47.031 V 328.82 Z"
   id="path32"
   sodipodi:nodetypes="csscscc" />
<path
   style="fill:#d6ba30;fill-opacity:1"
   d="M 439.06128,471.58489 H 62.301278 c -13.437,0 -24.368,-10.931 -24.368,-24.368 v -36.792 c 0,-13.436 10.931,-24.368 24.368,-24.368 H 439.06128 c 13.437,0 24.368,10.931 24.368,24.368 v 36.793 c 0,13.437 -10.931,24.367 -24.368,24.367 z m -376.762002,-66.923 c -3.179,0 -5.764,2.585 -5.764,5.764 v 36.793 c 0,3.179 2.586,5.764 5.764,5.764 H 439.05928 c 3.179,0 5.764,-2.585 5.764,-5.764 v -36.793 c 0,-3.179 -2.586,-5.764 -5.764,-5.764 z"
   id="path24-7"
   sodipodi:nodetypes="ssssssssssssssssss" /></svg>
