<?xml version="1.0"?>
<!DOCTYPE svg PUBLIC "-//W3C//DTD SVG 1.1//EN" "http://www.w3.org/Graphics/SVG/1.1/DTD/svg11.dtd">
<svg width="387.6mm" height="127.6mm" viewBox="0 0 387.6 127.6" xmlns="http://www.w3.org/2000/svg" version="1.1">
<g id="Sketch" transform="translate(193.800000,88.800000) scale(1,-1)">
<path id="Sketch_w0000"  d="M -190.0 -10.0 L -190.0 -35.0 L 190.0 -35.0 L 190.0 -10.0 L 180.0 -12.5 L 180.0 12.5 L 190.0 10.0 L 190.0 35.0 L 60.0 35.0 L 60.0 85.0 L -60.0 85.0 L -60.0 35.0 L -190.0 35.0 L -190.0 10.0 L -180.0 12.5 L -180.0 -12.5 L -190.0 -10.0 " stroke="#000000" stroke-width="0.35 px" style="stroke-width:0.35;stroke-miterlimit:4;stroke-dasharray:none;fill:none;fill-rule: evenodd "/>
<path id="Sketch_w0001"  d="M 7.0 65.0 A 7 7 0 1 1 -7 65L -7.0 -15.0 A 7 7 0 1 1 7 -15L 7.0 65.0 " stroke="#000000" stroke-width="0.35 px" style="stroke-width:0.35;stroke-miterlimit:4;stroke-dasharray:none;fill:none;fill-rule: evenodd "/>
<title>Sketch</title>
</g>
</svg>