<?xml version="1.0" encoding="UTF-8" standalone="no"?>
<svg
   xmlns:dc="http://purl.org/dc/elements/1.1/"
   xmlns:cc="http://creativecommons.org/ns#"
   xmlns:rdf="http://www.w3.org/1999/02/22-rdf-syntax-ns#"
   xmlns:svg="http://www.w3.org/2000/svg"
   xmlns="http://www.w3.org/2000/svg"
   xmlns:sodipodi="http://sodipodi.sourceforge.net/DTD/sodipodi-0.dtd"
   xmlns:inkscape="http://www.inkscape.org/namespaces/inkscape"
   width="387.6mm"
   height="117.6mm"
   viewBox="0 0 387.6 117.6"
   version="1.1"
   id="svg2"
   inkscape:version="0.91 r13725"
   sodipodi:docname="Camera_Holder2.svg">
  <metadata
     id="metadata13">
    <rdf:RDF>
      <cc:Work
         rdf:about="">
        <dc:format>image/svg+xml</dc:format>
        <dc:type
           rdf:resource="http://purl.org/dc/dcmitype/StillImage" />
        <dc:title></dc:title>
      </cc:Work>
    </rdf:RDF>
  </metadata>
  <defs
     id="defs11" />
  <sodipodi:namedview
     pagecolor="#ffffff"
     bordercolor="#666666"
     borderopacity="1"
     objecttolerance="10"
     gridtolerance="10"
     guidetolerance="10"
     inkscape:pageopacity="0"
     inkscape:pageshadow="2"
     inkscape:window-width="2560"
     inkscape:window-height="1410"
     id="namedview9"
     showgrid="false"
     inkscape:document-units="mm"
     inkscape:zoom="0.25193211"
     inkscape:cx="686.69292"
     inkscape:cy="208.34645"
     inkscape:window-x="0"
     inkscape:window-y="30"
     inkscape:window-maximized="1"
     inkscape:current-layer="svg2" />
  <g
     id="Sketch"
     transform="translate(193.800000,78.800000) scale(1,-1)">
    <path
       id="Sketch_w0000"
       d="M -190.0 -10.0 L -190.0 -35.0 L 190.0 -35.0 L 190.0 -10.0 L 180.0 -12.5 L 180.0 12.5 L 190.0 10.0 L 190.0 35.0 L 60.0 35.0 L 60.0 75.0 L -60.0 75.0 L -60.0 35.0 L -190.0 35.0 L -190.0 10.0 L -180.0 12.5 L -180.0 -12.5 L -190.0 -10.0 "
       stroke="#000000"
       stroke-width="0.35 px"
       style="stroke-width:0.35;stroke-miterlimit:4;stroke-dasharray:none;fill:none;fill-rule: evenodd " />
    <path
       id="Sketch_w0001"
       d="M 3.5 55.0 A 3.5 3.5 0 1 1 -3.5 55L -3.5 -15.0 A 3.5 3.5 0 1 1 3.5 -15L 3.5 55.0 "
       stroke="#000000"
       stroke-width="0.35 px"
       style="stroke-width:0.35;stroke-miterlimit:4;stroke-dasharray:none;fill:none;fill-rule: evenodd " />
    <title
       id="title7">Sketch</title>
  </g>
</svg>
