<?xml version="1.0" encoding="UTF-8" standalone="no"?>
<!-- Created with Inkscape (http://www.inkscape.org/) -->

<svg
   xmlns:dc="http://purl.org/dc/elements/1.1/"
   xmlns:cc="http://creativecommons.org/ns#"
   xmlns:rdf="http://www.w3.org/1999/02/22-rdf-syntax-ns#"
   xmlns:svg="http://www.w3.org/2000/svg"
   xmlns="http://www.w3.org/2000/svg"
   xmlns:sodipodi="http://sodipodi.sourceforge.net/DTD/sodipodi-0.dtd"
   xmlns:inkscape="http://www.inkscape.org/namespaces/inkscape"
   width="210mm"
   height="297mm"
   viewBox="0 0 744.09448819 1052.3622047"
   id="svg4267"
   version="1.1"
   inkscape:version="0.91 r13725"
   sodipodi:docname="Front_with_cuts.svg">
  <defs
     id="defs4269" />
  <sodipodi:namedview
     id="base"
     pagecolor="#ffffff"
     bordercolor="#666666"
     borderopacity="1.0"
     inkscape:pageopacity="0.0"
     inkscape:pageshadow="2"
     inkscape:zoom="0.49497475"
     inkscape:cx="1654.1941"
     inkscape:cy="913.0224"
     inkscape:document-units="mm"
     inkscape:current-layer="layer1"
     showgrid="false"
     inkscape:window-width="2560"
     inkscape:window-height="1410"
     inkscape:window-x="0"
     inkscape:window-y="30"
     inkscape:window-maximized="1" />
  <metadata
     id="metadata4272">
    <rdf:RDF>
      <cc:Work
         rdf:about="">
        <dc:format>image/svg+xml</dc:format>
        <dc:type
           rdf:resource="http://purl.org/dc/dcmitype/StillImage" />
        <dc:title></dc:title>
      </cc:Work>
    </rdf:RDF>
  </metadata>
  <g
     inkscape:label="Ebene 1"
     inkscape:groupmode="layer"
     id="layer1">
    <path
       inkscape:connector-curvature="0"
       style="fill:none;stroke:#000000;stroke-width:0.70866144;stroke-linecap:butt;stroke-linejoin:miter;stroke-miterlimit:10;stroke-opacity:1"
       d="m 30.140231,1022.5957 103.807799,0 m 0,0 c -0.1938,0 -0.3598,-0.1522 -0.3598,-0.3599 m 0,0 0,29.4123 c 0,0.1937 0.1522,0.3598 0.3598,0.3598 m 0,0 58.8245,0 c 0.1937,0 0.3598,-0.1522 0.3598,-0.3598 m 0,0 0,-29.4123 c 0,0.1938 -0.1522,0.3599 -0.3598,0.3599 m 0,0 58.8244,0 m 0,0 c -0.1938,0 -0.3599,-0.1522 -0.3599,-0.3599 m 0,0 0,29.4123 c 0,0.1937 0.1523,0.3598 0.3599,0.3598 m 0,0 58.8244,0 c 0.1938,0 0.3599,-0.1522 0.3599,-0.3598 m 0,0 0,-29.4123 c 0,0.1938 -0.1523,0.3599 -0.3599,0.3599 m 0,0 58.8245,0 m 0,0 c -0.1938,0 -0.3599,-0.1522 -0.3599,-0.3599 m 0,0 0,29.4123 c 0,0.1937 0.1523,0.3598 0.3599,0.3598 m 0,0 58.8244,0 c 0.1938,0 0.3599,-0.1522 0.3599,-0.3598 m 0,0 0,-29.4123 c 0,0.1938 -0.1523,0.3599 -0.3599,0.3599 m 0,0 58.8244,0 m 0,0 c -0.1938,0 -0.3598,-0.1522 -0.3598,-0.3599 m 0,0 0,29.4123 c 0,0.1937 0.1523,0.3598 0.3598,0.3598 m 0,0 58.8245,0 c 0.1938,0 0.3598,-0.1522 0.3598,-0.3598 m 0,0 0,-29.4123 c 0,0.1938 -0.1522,0.3599 -0.3598,0.3599 m 0,0 58.8244,0 m 0,0 c -0.1938,0 -0.3599,-0.1522 -0.3599,-0.3599 m 0,0 0,29.4123 c 0,0.1937 0.1524,0.3598 0.3599,0.3598 m 0,0 58.82443,0 c 0.19382,0 0.35989,-0.1522 0.35989,-0.3598 m 0,0 0,-29.4123 c 0,0.1938 -0.15225,0.3599 -0.35989,0.3599 m 0,0 58.82446,0 m 0,0 c -0.19382,0 -0.3599,-0.1522 -0.3599,-0.3599 m 0,0 0,29.4123 c 0,0.1937 0.15237,0.3598 0.3599,0.3598 m 0,0 58.82442,0 c 0.19382,0 0.35986,-0.1522 0.35986,-0.3598 m 0,0 0,-29.4123 c 0,0.1938 -0.15225,0.3599 -0.35986,0.3599 m 0,0 58.82443,0 m 0,0 c -0.19382,0 -0.35986,-0.1522 -0.35986,-0.3599 m 0,0 0,29.4123 c 0,0.1937 0.15236,0.3598 0.35986,0.3598 m 0,0 58.82442,0 c 0.19382,0 0.3599,-0.1522 0.3599,-0.3598 m 0,0 0,-29.4123 c 0,0.1938 -0.15226,0.3599 -0.3599,0.3599 m 0,0 58.82447,0 m 0,0 c -0.19382,0 -0.3599,-0.1522 -0.3599,-0.3599 m 0,0 0,29.4123 c 0,0.1937 0.15236,0.3598 0.3599,0.3598 m 0,0 58.82444,0 c 0.1938,0 0.3599,-0.1522 0.3599,-0.3598 m 0,0 0,-29.4123 c 0,0.1938 -0.1523,0.3599 -0.3599,0.3599 m 0,0 58.8244,0 m 0,0 c -0.1938,0 -0.3598,-0.1522 -0.3598,-0.3599 m 0,0 0,29.4123 c 0,0.1937 0.1523,0.3598 0.3598,0.3598 m 0,0 58.8245,0 c 0.1938,0 0.3598,-0.1522 0.3598,-0.3598 m 0,0 0,-29.4123 c 0,0.1938 -0.1522,0.3599 -0.3598,0.3599 m 0,0 58.8244,0 m 0,0 c -0.1938,0 -0.3599,-0.1522 -0.3599,-0.3599 m 0,0 0,29.4123 c 0,0.1937 0.1524,0.3598 0.3599,0.3598 m 0,0 58.8244,0 c 0.1939,0 0.3599,-0.1522 0.3599,-0.3598 m 0,0 0,-29.4123 c 0,0.1938 -0.1523,0.3599 -0.3599,0.3599 m 0,0 58.8245,0 m 0,0 c -0.1939,0 -0.3599,-0.1522 -0.3599,-0.3599 m 0,0 0,29.4123 c 0,0.1937 0.1524,0.3598 0.3599,0.3598 m 0,0 58.8244,0 c 0.1938,0 0.3599,-0.1522 0.3599,-0.3598 m 0,0 0,-29.4123 c 0,0.1938 -0.1523,0.3599 -0.3599,0.3599 m 0,0 58.8244,0 m 0,0 c -0.1938,0 -0.3598,-0.1522 -0.3598,-0.3599 m 0,0 0,29.4123 c 0,0.1937 0.1523,0.3598 0.3598,0.3598 m 0,0 58.8245,0 c 0.1938,0 0.3598,-0.1522 0.3598,-0.3598 m 0,0 0,-29.4123 c 0,0.1938 -0.1522,0.3599 -0.3598,0.3599 m 0,0 58.8244,0 m 0,0 c -0.1938,0 -0.3599,-0.1522 -0.3599,-0.3599 m 0,0 0,29.4123 c 0,0.1937 0.1524,0.3598 0.3599,0.3598 m 0,0 58.8244,0 c 0.1938,0 0.3599,-0.1522 0.3599,-0.3598 m 0,0 0,-29.4123 c 0,0.1938 -0.1522,0.3599 -0.3599,0.3599 m 0,0 58.8245,0 m 0,0 c -0.1938,0 -0.3599,-0.1522 -0.3599,-0.3599 m 0,0 0,29.4123 c 0,0.1937 0.1524,0.3598 0.3599,0.3598 m 0,0 58.8244,0 c 0.1938,0 0.3599,-0.1522 0.3599,-0.3598 m 0,0 0,-29.4123 c 0,0.1938 -0.1523,0.3599 -0.3599,0.3599 m 0,0 58.8244,0 m 0,0 c -0.1938,0 -0.3598,-0.1522 -0.3598,-0.3599 m 0,0 0,29.4123 c 0,0.1937 0.1523,0.3598 0.3598,0.3598 m 0,0 58.8245,0 c 0.1938,0 0.3599,-0.1522 0.3599,-0.3598 m 0,0 0,-29.4123 c 0,0.1938 -0.1523,0.3599 -0.3599,0.3599 m 0,0 103.8216,0 m 0,0 c 0.1938,0 0.3599,-0.1522 0.3599,-0.3599 m 0,0 0,0 m 0,0 0,-114.45153 m 0,0 c 0,0.1937 -0.1523,0.3598 -0.3599,0.3598 m 0,0 29.4123,0 c 0.1938,0 0.3598,-0.1522 0.3598,-0.3598 m 0,0 0,-58.8245 c 0,-0.1938 -0.1523,-0.3598 -0.3598,-0.3598 m 0,0 -29.4123,0 c 0.1938,0 0.3599,0.1522 0.3599,0.3598 m 0,0 0,-58.8244 m 0,0 c 0,0.1938 -0.1523,0.3599 -0.3599,0.3599 m 0,0 29.4123,0 c 0.1938,0 0.3598,-0.1523 0.3598,-0.3599 m 0,0 0,-58.8244 c 0,-0.1938 -0.1523,-0.3599 -0.3598,-0.3599 m 0,0 -29.4123,0 c 0.1938,0 0.3599,0.1522 0.3599,0.3599 m 0,0 0,-58.8245 m 0,0 c 0,0.1938 -0.1523,0.3599 -0.3599,0.3599 m 0,0 29.4123,0 c 0.1938,0 0.3598,-0.1523 0.3598,-0.3599 m 0,0 0,-58.82443 c 0,-0.19382 -0.1523,-0.35986 -0.3598,-0.35986 m 0,0 -29.4123,0 c 0.1938,0 0.3599,0.15236 0.3599,0.35986 m 0,0 0,-58.82443 m 0,0 c 0,0.19382 -0.1523,0.35986 -0.3599,0.35986 m 0,0 29.4123,0 c 0.1938,0 0.3598,-0.15236 0.3598,-0.35986 m 0,0 0,-58.82442 c 0,-0.19382 -0.1523,-0.35986 -0.3598,-0.35986 m 0,0 -29.4123,0 c 0.1938,0 0.3599,0.15236 0.3599,0.35986 m 0,0 0,-58.82442 m 0,0 c 0,0.19382 -0.1523,0.35986 -0.3599,0.35986 m 0,0 29.4123,0 c 0.1938,0 0.3598,-0.15236 0.3598,-0.35986 m 0,0 0,-58.82446 c 0,-0.19382 -0.1523,-0.35986 -0.3598,-0.35986 m 0,0 -29.4123,0 c 0.1938,0 0.3599,0.15237 0.3599,0.35986 m 0,0 0,-58.82442 m 0,0 c 0,0.19381 -0.1523,0.35985 -0.3599,0.35985 m 0,0 29.4123,0 c 0.1938,0 0.3598,-0.15236 0.3598,-0.35985 m 0,0 0,-58.82444 c 0,-0.19382 -0.1523,-0.35986 -0.3598,-0.35986 m 0,0 -29.4123,0 c 0.1938,0 0.3599,0.15236 0.3599,0.35986 m 0,0 0,-58.82443 m 0,0 c 0,0.19382 -0.1523,0.35986 -0.3599,0.35986 m 0,0 29.4123,0 c 0.1938,0 0.3598,-0.15236 0.3598,-0.35986 m 0,0 0,-58.82446 c 0,-0.19381 -0.1523,-0.35985 -0.3598,-0.35985 m 0,0 -29.4123,0 c 0.1938,0 0.3599,0.15236 0.3599,0.35985 m 0,0 0,-58.824416 m 0,0 c 0,0.19382 -0.1523,0.35986 -0.3599,0.35986 m 0,0 29.4123,0 c 0.1938,0 0.3598,-0.15237 0.3598,-0.35986 m 0,0 0,-58.82443 c 0,-0.19382 -0.1523,-0.35986 -0.3598,-0.35986 m 0,0 -29.4123,0 c 0.1938,0 0.3599,0.15237 0.3599,0.35986 m 0,0 0,-58.82442 m 0,0 c 0,0.19382 -0.1523,0.35986 -0.3599,0.35986 m 0,0 29.4123,0 c 0.1938,0 0.3598,-0.15237 0.3598,-0.35986 m 0,0 0,-58.82446 c 0,-0.19382 -0.1523,-0.35986 -0.3598,-0.35986 m 0,0 -29.4123,0 c 0.1938,0 0.3599,0.15236 0.3599,0.35986 m 0,0 0,-58.824434 m 0,0 c 0,0.19382 -0.1523,0.35986 -0.3599,0.35986 m 0,0 29.4123,0 c 0.1938,0 0.3598,-0.15236 0.3598,-0.35986 m 0,0 0,-58.82442 c 0,-0.19382 -0.1523,-0.35986 -0.3598,-0.35986 m 0,0 -29.4123,0 c 0.1938,0 0.3599,0.15236 0.3599,0.35986 m 0,0 0,-114.45158 m 0,0 c 0,-0.19382 -0.1523,-0.35986 -0.3599,-0.35986 m 0,0 0,0 m 0,0 -103.8216,0 m 0,0 c 0.1938,0 0.3599,0.15236 0.3599,0.35986 m 0,0 0,-29.41222 c 0,-0.19382 -0.1524,-0.35989 -0.3599,-0.35989 m 0,0 -58.8245,0 c -0.1938,0 -0.3598,0.15236 -0.3598,0.35989 m 0,0 0,29.41222 c 0,-0.19382 0.1523,-0.35986 0.3598,-0.35986 m 0,0 -58.8244,0 m 0,0 c 0.1938,0 0.3599,0.15236 0.3599,0.35986 m 0,0 0,-29.41222 c 0,-0.19382 -0.1524,-0.35989 -0.3599,-0.35989 m 0,0 -58.8244,0 c -0.1938,0 -0.3599,0.15236 -0.3599,0.35989 m 0,0 0,29.41222 c 0,-0.19382 0.1524,-0.35986 0.3599,-0.35986 m 0,0 -58.8245,0 m 0,0 c 0.1938,0 0.3599,0.15236 0.3599,0.35986 m 0,0 0,-29.41222 c 0,-0.19382 -0.1523,-0.35989 -0.3599,-0.35989 m 0,0 -58.8244,0 c -0.1938,0 -0.3599,0.15236 -0.3599,0.35989 m 0,0 0,29.41222 c 0,-0.19382 0.1524,-0.35986 0.3599,-0.35986 m 0,0 -58.8244,0 m 0,0 c 0.1938,0 0.3598,0.15236 0.3598,0.35986 m 0,0 0,-29.41222 c 0,-0.19382 -0.1523,-0.35989 -0.3598,-0.35989 m 0,0 -58.8245,0 c -0.1938,0 -0.3598,0.15236 -0.3598,0.35989 m 0,0 0,29.41222 c 0,-0.19382 0.1523,-0.35986 0.3598,-0.35986 m 0,0 -58.8244,0 m 0,0 c 0.1938,0 0.3599,0.15236 0.3599,0.35986 m 0,0 0,-29.41222 c 0,-0.19382 -0.1524,-0.35989 -0.3599,-0.35989 m 0,0 -58.8244,0 c -0.1939,0 -0.3599,0.15236 -0.3599,0.35989 m 0,0 0,29.41222 c 0,-0.19382 0.1524,-0.35986 0.3599,-0.35986 m 0,0 -58.8245,0 m 0,0 c 0.1939,0 0.3599,0.15236 0.3599,0.35986 m 0,0 0,-29.41222 c 0,-0.19382 -0.1524,-0.35989 -0.3599,-0.35989 m 0,0 -58.8244,0 c -0.1938,0 -0.3599,0.15236 -0.3599,0.35989 m 0,0 0,29.41222 c 0,-0.19382 0.1524,-0.35986 0.3599,-0.35986 m 0,0 -58.8244,0 m 0,0 c 0.1938,0 0.3598,0.15236 0.3598,0.35986 m 0,0 0,-29.41222 c 0,-0.19382 -0.1523,-0.35989 -0.3598,-0.35989 m 0,0 -58.8245,0 c -0.1938,0 -0.3598,0.15236 -0.3598,0.35989 m 0,0 0,29.41222 c 0,-0.19382 0.1523,-0.35986 0.3598,-0.35986 m 0,0 -58.8244,0 m 0,0 c 0.1938,0 0.3599,0.15236 0.3599,0.35986 m 0,0 0,-29.41222 c 0,-0.19382 -0.1524,-0.35989 -0.3599,-0.35989 m 0,0 -58.82444,0 c -0.19382,0 -0.3599,0.15236 -0.3599,0.35989 m 0,0 0,29.41222 c 0,-0.19382 0.15236,-0.35986 0.3599,-0.35986 m 0,0 -58.82447,0 m 0,0 c 0.19382,0 0.3599,0.15236 0.3599,0.35986 m 0,0 0,-29.41222 c 0,-0.19382 -0.15236,-0.35989 -0.3599,-0.35989 m 0,0 -58.82442,0 c -0.19382,0 -0.35986,0.15236 -0.35986,0.35989 m 0,0 0,29.41222 c 0,-0.19382 0.15236,-0.35986 0.35986,-0.35986 m 0,0 -58.82443,0 m 0,0 c 0.19382,0 0.35986,0.15236 0.35986,0.35986 m 0,0 0,-29.41222 c 0,-0.19382 -0.15236,-0.35989 -0.35986,-0.35989 m 0,0 -58.82442,0 c -0.19382,0 -0.3599,0.15236 -0.3599,0.35989 m 0,0 0,29.41222 c 0,-0.19382 0.15237,-0.35986 0.3599,-0.35986 m 0,0 -58.82446,0 m 0,0 c 0.19382,0 0.35989,0.15236 0.35989,0.35986 m 0,0 0,-29.41222 c 0,-0.19382 -0.15236,-0.35989 -0.35989,-0.35989 m 0,0 -58.82443,0 c -0.1938,0 -0.3599,0.15236 -0.3599,0.35989 m 0,0 0,29.41222 c 0,-0.19382 0.1524,-0.35986 0.3599,-0.35986 m 0,0 -58.8244,0 m 0,0 c 0.1938,0 0.3598,0.15236 0.3598,0.35986 m 0,0 0,-29.41222 c 0,-0.19382 -0.1523,-0.35989 -0.3598,-0.35989 m 0,0 -58.8245,0 c -0.1938,0 -0.3598,0.15236 -0.3598,0.35989 m 0,0 0,29.41222 c 0,-0.19382 0.1523,-0.35986 0.3598,-0.35986 m 0,0 -58.8244,0 m 0,0 c 0.1938,0 0.3599,0.15236 0.3599,0.35986 m 0,0 0,-29.41222 c 0,-0.19382 -0.1524,-0.35989 -0.3599,-0.35989 m 0,0 -58.8244,0 c -0.1938,0 -0.3599,0.15236 -0.3599,0.35989 m 0,0 0,29.41222 c 0,-0.19382 0.1523,-0.35986 0.3599,-0.35986 m 0,0 -58.8245,0 m 0,0 c 0.1938,0 0.3599,0.15236 0.3599,0.35986 m 0,0 0,-29.41222 c 0,-0.19382 -0.1523,-0.35989 -0.3599,-0.35989 m 0,0 -58.8244,0 c -0.1938,0 -0.3599,0.15236 -0.3599,0.35989 m 0,0 0,29.41222 c 0,-0.19382 0.1523,-0.35986 0.3599,-0.35986 m 0,0 -58.8244,0 m 0,0 c 0.1937,0 0.3598,0.15236 0.3598,0.35986 m 0,0 0,-29.41222 c 0,-0.19382 -0.1522,-0.35989 -0.3598,-0.35989 m 0,0 -58.8245,0 c -0.1938,0 -0.3598,0.15236 -0.3598,0.35989 m 0,0 0,29.41222 c 0,-0.19382 0.1522,-0.35986 0.3598,-0.35986 m 0,0 -103.821599,0 m 0,0 c -0.1938,0 -0.3599,0.15236 -0.3599,0.35986 m 0,0 0,0 m 0,0 0,114.45158 m 0,0 c 0,-0.19382 0.1522,-0.35986 0.3599,-0.35986 m 0,0 -29.41230028,0 c -0.1937,0 -0.3598,0.15236 -0.3598,0.35986 m 0,0 0,58.82442 c 0,0.19382 0.1522,0.35986 0.3598,0.35986 m 0,0 29.41230028,0 c -0.1938,0 -0.3599,-0.15236 -0.3599,-0.35986 m 0,0 0,58.824434 m 0,0 c 0,-0.19382 0.1522,-0.35986 0.3599,-0.35986 m 0,0 -29.41230028,0 c -0.1937,0 -0.3598,0.15236 -0.3598,0.35986 m 0,0 0,58.82446 c 0,0.19382 0.1522,0.35986 0.3598,0.35986 m 0,0 29.41230028,0 c -0.1938,0 -0.3599,-0.15237 -0.3599,-0.35986 m 0,0 0,58.82442 m 0,0 c 0,-0.19382 0.1522,-0.35986 0.3599,-0.35986 m 0,0 -29.41230028,0 c -0.1937,0 -0.3598,0.15237 -0.3598,0.35986 m 0,0 0,58.82443 c 0,0.19382 0.1522,0.35986 0.3598,0.35986 m 0,0 29.41230028,0 c -0.1938,0 -0.3599,-0.15237 -0.3599,-0.35986 m 0,0 0,58.824416 m 0,0 c 0,-0.19381 0.1522,-0.35985 0.3599,-0.35985 m 0,0 -29.41230028,0 c -0.1937,0 -0.3598,0.15236 -0.3598,0.35985 m 0,0 0,58.82446 c 0,0.19382 0.1522,0.35986 0.3598,0.35986 m 0,0 29.41230028,0 c -0.1938,0 -0.3599,-0.15236 -0.3599,-0.35986 m 0,0 0,58.82443 m 0,0 c 0,-0.19382 0.1522,-0.35986 0.3599,-0.35986 m 0,0 -29.41230028,0 c -0.1937,0 -0.3598,0.15236 -0.3598,0.35986 m 0,0 0,58.82444 c 0,0.19381 0.1522,0.35985 0.3598,0.35985 m 0,0 29.41230028,0 c -0.1938,0 -0.3599,-0.15236 -0.3599,-0.35985 m 0,0 0,58.82442 m 0,0 c 0,-0.19382 0.1522,-0.35986 0.3599,-0.35986 m 0,0 -29.41230028,0 c -0.1937,0 -0.3598,0.15237 -0.3598,0.35986 m 0,0 0,58.82446 c 0,0.19382 0.1522,0.35986 0.3598,0.35986 m 0,0 29.41230028,0 c -0.1938,0 -0.3599,-0.15236 -0.3599,-0.35986 m 0,0 0,58.82442 m 0,0 c 0,-0.19382 0.1522,-0.35986 0.3599,-0.35986 m 0,0 -29.41230028,0 c -0.1937,0 -0.3598,0.15236 -0.3598,0.35986 m 0,0 0,58.82442 c 0,0.19382 0.1522,0.35986 0.3598,0.35986 m 0,0 29.41230028,0 c -0.1938,0 -0.3599,-0.15236 -0.3599,-0.35986 m 0,0 0,58.82443 m 0,0 c 0,-0.19382 0.1522,-0.35986 0.3599,-0.35986 m 0,0 -29.41230028,0 c -0.1937,0 -0.3598,0.15236 -0.3598,0.35986 m 0,0 0,58.82443 c 0,0.1938 0.1522,0.3599 0.3598,0.3599 m 0,0 29.41230028,0 c -0.1938,0 -0.3599,-0.1523 -0.3599,-0.3599 m 0,0 0,58.8245 m 0,0 c 0,-0.1938 0.1522,-0.3599 0.3599,-0.3599 m 0,0 -29.41230028,0 c -0.1937,0 -0.3598,0.1522 -0.3598,0.3599 m 0,0 0,58.8244 c 0,0.1938 0.1522,0.3599 0.3598,0.3599 m 0,0 29.41230028,0 c -0.1938,0 -0.3599,-0.1523 -0.3599,-0.3599 m 0,0 0,58.8244 m 0,0 c 0,-0.1938 0.1522,-0.3598 0.3599,-0.3598 m 0,0 -29.41230028,0 c -0.1937,0 -0.3598,0.1522 -0.3598,0.3598 m 0,0 0,58.8245 c 0,0.1937 0.1522,0.3598 0.3598,0.3598 m 0,0 29.41230028,0 c -0.1938,0 -0.3599,-0.1522 -0.3599,-0.3598 m 0,0 0,114.45153 m 0,0 c 0,0.1938 0.1522,0.3599 0.3599,0.3599 m 0,0 0,0"
       id="path75" />
    <rect
       style="fill:none;fill-opacity:1;stroke:#000000;stroke-width:0.99894547;stroke-miterlimit:4;stroke-dasharray:none;stroke-opacity:1"
       id="rect4821"
       width="831.67822"
       height="1097.4263"
       x="787.11365"
       y="-199.69739" />
    <ellipse
       style="fill:none;fill-opacity:1;stroke:#000000;stroke-width:0.51046693;stroke-miterlimit:4;stroke-dasharray:none;stroke-opacity:1"
       id="path4823"
       cx="380.90552"
       cy="349.01575"
       rx="127.30382"
       ry="127.30383" />
    <ellipse
       style="fill:none;fill-opacity:1;stroke:#000000;stroke-width:0.51046693;stroke-miterlimit:4;stroke-dasharray:none;stroke-opacity:1"
       id="path4823-9"
       cx="198.42519"
       cy="853.93701"
       rx="127.30382"
       ry="127.30383" />
    <ellipse
       style="fill:none;fill-opacity:1;stroke:#000000;stroke-width:0.51046693;stroke-miterlimit:4;stroke-dasharray:none;stroke-opacity:1"
       id="path4823-9-8"
       cx="552.75592"
       cy="853.93701"
       rx="127.30382"
       ry="127.30383" />
    <ellipse
       style="fill:none;fill-opacity:1;stroke:#000000;stroke-width:0.51046693;stroke-miterlimit:4;stroke-dasharray:none;stroke-opacity:1"
       id="path4823-9-7"
       cx="198.42519"
       cy="-155.90552"
       rx="127.30382"
       ry="127.30383" />
    <ellipse
       style="fill:none;fill-opacity:1;stroke:#000000;stroke-width:0.51046693;stroke-miterlimit:4;stroke-dasharray:none;stroke-opacity:1"
       id="path4823-9-8-2"
       cx="552.75592"
       cy="-155.90552"
       rx="127.30382"
       ry="127.30383" />
  </g>
</svg>
